<?xml version="1.0" standalone="no"?>
<!DOCTYPE svg PUBLIC "-//W3C//DTD SVG 20010904//EN"
 "http://www.w3.org/TR/2001/REC-SVG-20010904/DTD/svg10.dtd">
<svg version="1.0" xmlns="http://www.w3.org/2000/svg"
 width="800.000000pt" height="800.000000pt" viewBox="0 0 800.000000 800.000000"
 preserveAspectRatio="xMidYMid meet">

<g transform="translate(0.000000,800.000000) scale(0.100000,-0.100000)"
fill="#2DA0DC" stroke="none">
<path d="M3204 6982 c-122 -57 -135 -192 -29 -299 94 -93 224 -143 542 -209
186 -38 221 -41 229 -20 21 56 -225 348 -381 451 -132 87 -274 117 -361 77z"/>
<path d="M4892 6969 c-113 -19 -301 -116 -441 -227 -101 -80 -235 -219 -289
-301 l-42 -63 42 -28 c115 -74 257 -225 333 -352 93 -156 160 -355 199 -588
31 -186 39 -364 33 -735 -6 -356 -11 -463 -46 -910 -10 -126 -17 -232 -15
-234 6 -7 577 18 789 34 287 22 739 72 925 101 l35 6 -12 151 c-52 603 -150
1002 -338 1363 -114 220 -236 385 -401 543 -293 281 -656 472 -1113 587 -96
24 -176 46 -179 48 -2 3 11 11 29 19 19 8 62 26 96 40 34 15 142 57 240 93
210 78 279 112 334 161 51 46 69 81 69 134 0 115 -106 182 -248 158z"/>
<path d="M3535 6274 c-350 -35 -652 -129 -933 -291 -524 -302 -882 -798 -1046
-1448 -49 -194 -118 -597 -128 -745 l-3 -44 45 -8 c451 -79 1048 -146 1640
-184 212 -13 1320 -32 1320 -22 0 2 4 39 10 83 17 139 48 551 61 795 15 305 7
835 -15 980 -49 321 -137 533 -289 696 -140 150 -224 185 -462 189 -88 2 -178
1 -200 -1z"/>
<path d="M1159 3397 c-90 -78 -249 -214 -354 -302 -461 -386 -524 -451 -495
-505 44 -82 317 -180 666 -239 399 -68 793 -84 1209 -50 789 65 1512 373 1980
843 55 56 110 115 122 132 l23 31 -528 6 c-508 5 -732 15 -1157 52 -376 33
-887 99 -1190 155 -60 11 -110 20 -110 20 -1 0 -76 -64 -166 -143z"/>
<path d="M6252 3424 c-458 -60 -1161 -113 -1522 -114 l-115 -1 -40 -56 c-52
-72 -169 -208 -259 -301 l-71 -73 45 8 c25 4 144 8 265 8 427 -1 602 -62 1140
-398 533 -335 742 -440 1008 -508 302 -77 725 -60 824 33 64 60 25 122 -382
603 -258 304 -408 487 -560 683 -92 118 -114 141 -135 140 -14 0 -103 -11
-198 -24z"/>
<path d="M4300 2649 c-101 -12 -231 -35 -370 -65 -95 -20 -142 -38 -270 -101
-193 -94 -279 -132 -448 -194 -402 -149 -865 -232 -1340 -241 l-144 -3 7 -42
c23 -154 123 -386 224 -521 172 -228 398 -357 736 -420 133 -24 470 -24 585 2
203 44 428 147 656 298 173 115 283 200 613 477 277 232 428 348 561 431 74
47 207 114 264 134 16 5 7 14 -50 47 -186 110 -344 170 -504 195 -104 15 -396
17 -520 3z"/>
<path d="M5555 2231 c-123 -49 -365 -179 -365 -197 0 -1 39 -15 86 -29 47 -14
161 -58 252 -97 381 -161 576 -218 859 -248 154 -17 424 -9 522 16 l75 18
-139 23 c-77 13 -180 34 -230 49 -242 69 -588 237 -888 431 -54 34 -99 63
-100 62 -1 0 -33 -13 -72 -28z"/>
</g>
</svg>
